<svg width="32" height="32" viewBox="0 0 32 32" fill="none" xmlns="http://www.w3.org/2000/svg">
<path d="M1 16L1 26C1 28.7614 3.23858 31 6 31L26 31C28.7614 31 31 28.7614 31 26L31 16" stroke="black" stroke-width="2" stroke-linecap="round"/>
<path d="M15 22C15 22.5523 15.4477 23 16 23C16.5523 23 17 22.5523 17 22L15 22ZM16.7071 1.29289C16.3166 0.90237 15.6834 0.90237 15.2929 1.29289L8.92893 7.65685C8.53841 8.04738 8.53841 8.68054 8.92893 9.07107C9.31946 9.46159 9.95262 9.46159 10.3431 9.07107L16 3.41422L21.6569 9.07107C22.0474 9.46159 22.6805 9.46159 23.0711 9.07107C23.4616 8.68054 23.4616 8.04738 23.0711 7.65685L16.7071 1.29289ZM16 22L17 22L17 2L16 2L15 2L15 22L16 22Z" fill="black"/>
</svg>
