<svg width="64" height="64" viewBox="0 0 64 64" fill="none" xmlns="http://www.w3.org/2000/svg">
<path d="M2 32L2 52C2 57.5228 6.47715 62 12 62L52 62C57.5228 62 62 57.5228 62 52L62 32" stroke="black" stroke-width="4" stroke-linecap="round"/>
<path d="M30 44C30 45.1046 30.8954 46 32 46C33.1046 46 34 45.1046 34 44L30 44ZM33.4142 3.58578C32.6332 2.80474 31.3668 2.80474 30.5858 3.58578L17.8579 16.3137C17.0768 17.0948 17.0768 18.3611 17.8579 19.1421C18.6389 19.9232 19.9052 19.9232 20.6863 19.1421L32 7.82843L43.3137 19.1421C44.0948 19.9232 45.3611 19.9232 46.1421 19.1421C46.9232 18.3611 46.9232 17.0948 46.1421 16.3137L33.4142 3.58578ZM32 44L34 44L34 5L32 5L30 5L30 44L32 44Z" fill="black"/>
</svg>
